HIERARCHY
ROOT Hips
{
 OFFSET 0.000000 0.000000 0.000000
 CHANNELS 6 Xposition Yposition Zposition Yrotation Xrotation Zrotation
 JOINT Chest
 {
  OFFSET 0.000000 9.581000 -0.001100
  CHANNELS 3 Yrotation Xrotation Zrotation
  JOINT Chest2
  {
   OFFSET 0.000000 9.561100 0.002200
   CHANNELS 3 Yrotation Xrotation Zrotation
   JOINT Chest3
   {
    OFFSET 0.000000 9.521100 0.000000
    CHANNELS 3 Yrotation Xrotation Zrotation
    JOINT Chest4
    {
     OFFSET 0.000000 9.511400 0.000000
     CHANNELS 3 Yrotation Xrotation Zrotation
     JOINT Neck
     {
      OFFSET 0.000000 14.375100 0.000000
      CHANNELS 3 Yrotation Xrotation Zrotation
      JOINT Head
      {
       OFFSET 0.000000 8.901200 0.004600
       CHANNELS 3 Yrotation Xrotation Zrotation
       End Site
       {
        OFFSET 0.000000 16.962200 0.002400
       }
      }
     }
     JOINT RightCollar
     {
      OFFSET -2.920100 9.518800 0.000000
      CHANNELS 3 Yrotation Xrotation Zrotation
      JOINT RightShoulder
      {
       OFFSET -13.664500 0.000000 0.000000
       CHANNELS 3 Yrotation Xrotation Zrotation
       JOINT RightElbow
       {
        OFFSET 0.000000 -29.999200 0.000000
        CHANNELS 3 Yrotation Xrotation Zrotation
        JOINT RightWrist
        {
         OFFSET 0.000000 -24.253600 0.000000
         CHANNELS 3 Yrotation Xrotation Zrotation
         End Site
         {
          OFFSET 0.000000 -17.918900 0.000000
         }
        }
       }
      }
     }
     JOINT LeftCollar
     {
      OFFSET 2.920100 9.518800 0.000000
      CHANNELS 3 Yrotation Xrotation Zrotation
      JOINT LeftShoulder
      {
       OFFSET 13.664500 0.000000 0.000000
       CHANNELS 3 Yrotation Xrotation Zrotation
       JOINT LeftElbow
       {
        OFFSET 0.000000 -29.999200 0.000000
        CHANNELS 3 Yrotation Xrotation Zrotation
        JOINT LeftWrist
        {
         OFFSET 0.000000 -24.253600 0.000000
         CHANNELS 3 Yrotation Xrotation Zrotation
         End Site
         {
          OFFSET 0.000000 -17.918900 0.000000
         }
        }
       }
      }
     }
    }
   }
  }
 }
 JOINT RightHip
 {
  OFFSET -7.797300 0.005300 0.000500
  CHANNELS 3 Yrotation Xrotation Zrotation
  JOINT RightKnee
  {
   OFFSET 0.000000 -40.663400 -0.000500
   CHANNELS 3 Yrotation Xrotation Zrotation
   JOINT RightAnkle
   {
    OFFSET 0.000000 -39.523700 -0.000900
    CHANNELS 3 Yrotation Xrotation Zrotation
    JOINT RightToe
    {
     OFFSET 0.000000 -6.418000 14.485300
     CHANNELS 3 Yrotation Xrotation Zrotation
     End Site
     {
      OFFSET 0.000000 -1.465200 6.326400
     }
    }
   }
  }
 }
 JOINT LeftHip
 {
  OFFSET 7.797300 0.005300 0.000500
  CHANNELS 3 Yrotation Xrotation Zrotation
  JOINT LeftKnee
  {
   OFFSET 0.000000 -40.663400 -0.000500
   CHANNELS 3 Yrotation Xrotation Zrotation
   JOINT LeftAnkle
   {
    OFFSET 0.000000 -39.523700 -0.000900
    CHANNELS 3 Yrotation Xrotation Zrotation
    JOINT LeftToe
    {
     OFFSET 0.000000 -6.418000 14.485300
     CHANNELS 3 Yrotation Xrotation Zrotation
     End Site
     {
      OFFSET 0.000000 -1.465200 6.326400
     }
    }
   }
  }
 }
}
MOTION
Frames: 13
Frame Time: 0.008333
-2.281949 126.422555 22.037275 -168.368035 -28.184098 -2.863368 -5.291179 19.139420 -0.137617 -0.654897 2.390072 0.094325 -1.051701 3.869790 0.119541 -4.513835 16.450030 -0.019228 -0.457366 17.321218 -0.364995 -0.389092 -7.631581 -0.314596 -5.574433 -2.333921 -0.444593 -12.214739 -4.768256 -4.503192 -102.775742 -33.431750 129.833789 -18.785293 4.294768 -17.381531 -4.793466 -1.957699 -0.085811 5.291473 -7.899174 8.161419 90.541278 -62.190625 -113.099460 9.273141 0.433152 25.080073 -6.817434 -59.466621 0.257424 -44.588057 73.238142 -40.598553 20.674576 34.385423 11.108897 0.008454 0.002473 0.003746 -6.317488 -48.894396 -7.892034 87.448235 76.634682 83.482569 -11.723363 -10.759405 -3.388853 -0.020518 -0.009045 -0.009089
-2.281399 126.420767 22.037997 -168.381650 -28.157241 -2.864416 -5.292809 19.148229 -0.118558 -0.653098 2.384919 0.092455 -1.060248 3.889109 0.127100 -4.517219 16.467276 -0.011138 -0.448612 17.300996 -0.376816 -0.364638 -7.623523 -0.338842 -5.546101 -2.378356 -0.457285 -12.224733 -4.799712 -4.527171 -102.778605 -33.426899 129.835537 -18.768751 4.306266 -17.374267 -4.781538 -2.037139 -0.086613 5.310420 -7.895255 8.144310 90.531450 -62.183876 -113.095886 9.262520 0.414322 25.086996 -6.899759 -59.481652 0.333256 -44.561574 73.232048 -40.598527 20.645166 34.354517 11.082185 -0.002192 0.001480 -0.000971 -6.289880 -48.916143 -7.881331 87.412323 76.630893 83.441885 -11.740308 -10.740334 -3.357314 -0.019408 -0.013109 -0.008597
-2.281920 126.420275 22.036634 -168.389553 -28.145725 -2.866252 -5.310722 19.188500 -0.100469 -0.633085 2.343129 0.077052 -1.078004 3.927615 0.142400 -4.541006 16.533036 0.028783 -0.430410 17.208557 -0.437668 -0.356909 -7.634050 -0.350613 -5.500804 -2.485942 -0.509869 -12.227570 -4.818959 -4.549376 -102.781972 -33.422114 129.835493 -18.760555 4.314540 -17.366164 -4.744447 -2.162450 -0.133657 5.331275 -7.904739 8.152999 90.505400 -62.167490 -113.083515 9.269229 0.415401 25.088888 -6.980659 -59.481927 0.404130 -44.537591 73.226729 -40.604970 20.652324 34.309390 11.041177 -0.006705 -0.005428 -0.002971 -6.286266 -48.926649 -7.873139 87.399290 76.617384 83.407331 -11.725528 -10.702322 -3.280785 -0.015115 -0.014584 -0.006695
-2.282401 126.420124 22.034908 -168.397789 -28.137179 -2.870361 -5.311779 19.198021 -0.088108 -0.644655 2.366144 0.085920 -1.068383 3.910450 0.136328 -4.561868 16.587063 0.060764 -0.416322 17.152913 -0.477986 -0.349676 -7.644655 -0.362165 -5.469861 -2.564054 -0.549506 -12.240321 -4.822186 -4.593170 -102.769255 -33.409531 129.851165 -18.779242 4.295325 -17.376852 -4.718286 -2.248285 -0.164371 5.348157 -7.911713 8.157454 90.506441 -62.156604 -113.095648 9.276020 0.422811 25.084746 -7.026677 -59.484666 0.451519 -44.587559 73.224037 -40.662903 20.621589 34.274384 10.998100 -0.009359 -0.007129 -0.004146 -6.264202 -48.929120 -7.865546 87.360972 76.624410 83.363058 -11.730964 -10.667253 -3.198708 -0.006856 -0.016666 -0.003037
-2.281923 126.419524 22.034215 -168.409500 -28.121599 -2.878661 -5.315445 19.217716 -0.065445 -0.646614 2.370510 0.088186 -1.060882 3.894363 0.130853 -4.567078 16.594089 0.068638 -0.409459 17.165639 -0.480394 -0.320208 -7.644324 -0.392650 -5.449106 -2.577610 -0.561139 -12.252485 -4.838978 -4.607495 -102.764338 -33.424783 129.864939 -18.775986 4.299523 -17.360813 -4.712048 -2.289427 -0.159912 5.370299 -7.917920 8.153664 90.484858 -62.150859 -113.091114 9.268635 0.423863 25.075646 -7.081158 -59.494030 0.514438 -44.615301 73.225467 -40.698915 20.555362 34.239381 10.949366 -0.016831 -0.009812 -0.007456 -6.222706 -48.921160 -7.854496 87.245515 76.647273 83.268050 -11.747953 -10.645251 -3.119782 0.016481 -0.010563 0.007301
-2.282432 126.419118 22.033544 -168.413369 -28.107921 -2.885914 -5.329196 19.237521 -0.047224 -0.649320 2.376127 0.090736 -1.087272 3.949907 0.154828 -4.566445 16.576460 0.073632 -0.392704 17.130156 -0.514995 -0.312287 -7.683106 -0.414865 -5.399173 -2.643963 -0.603598 -12.271588 -4.852633 -4.619548 -102.763767 -33.434302 129.875337 -18.772527 4.313386 -17.335536 -4.695560 -2.388996 -0.156138 5.402824 -7.916854 8.124763 90.467711 -62.138634 -113.084885 9.271788 0.430046 25.083165 -7.152082 -59.499676 0.589144 -44.606405 73.227879 -40.713178 20.514889 34.204804 10.901756 -0.017791 -0.010540 -0.007881 -6.201098 -48.913780 -7.840538 87.125717 76.665197 83.129838 -11.749963 -10.607223 -2.990131 0.025653 -0.007000 0.011365
-2.284567 126.419120 22.032526 -168.415515 -28.099984 -2.885552 -5.361069 19.291796 -0.031686 -0.654649 2.387603 0.095897 -1.073642 3.920762 0.143022 -4.570382 16.577679 0.082537 -0.385698 17.157402 -0.514913 -0.291914 -7.735615 -0.455666 -5.370450 -2.673070 -0.632449 -12.297262 -4.863507 -4.642178 -102.736695 -33.448315 129.876304 -18.781375 4.297570 -17.319347 -4.681188 -2.447312 -0.161944 5.413280 -7.920668 8.121026 90.449599 -62.133546 -113.081351 9.268278 0.437956 25.079519 -7.223048 -59.498522 0.668870 -44.593219 73.228237 -40.734004 20.498126 34.165999 10.845481 -0.006479 -0.006084 -0.002870 -6.185385 -48.901696 -7.829719 86.994579 76.784320 82.919115 -11.627526 -10.562278 -2.777916 0.003970 -0.004285 0.001759
-2.284385 126.418407 22.032820 -168.420253 -28.082402 -2.896410 -5.364686 19.303622 -0.008125 -0.657093 2.392965 0.098159 -1.077486 3.929110 0.146722 -4.586174 16.607515 0.103987 -0.373477 17.093772 -0.557600 -0.277112 -7.727984 -0.470334 -5.345293 -2.726483 -0.674481 -12.314228 -4.874826 -4.660480 -102.715295 -33.434961 129.877710 -18.780602 4.298449 -17.310376 -4.661702 -2.531900 -0.182014 5.418681 -7.926777 8.129331 90.459219 -62.132136 -113.095387 9.281959 0.441005 25.077226 -7.257359 -59.510266 0.719605 -44.600915 73.225688 -40.747592 20.497096 34.138024 10.801231 -0.005025 -0.007938 -0.002226 -6.196933 -48.896529 -7.796046 86.853238 76.902160 82.729642 -11.517921 -10.528155 -2.594527 0.000358 0.001819 0.000159
-2.286826 126.418786 22.031456 -168.416314 -28.080629 -2.898343 -5.376550 19.327328 0.000755 -0.657257 2.391305 0.097762 -1.082560 3.943504 0.152549 -4.599021 16.635675 0.123836 -0.363374 17.065102 -0.585011 -0.258502 -7.749135 -0.496184 -5.324880 -2.776789 -0.713106 -12.342083 -4.882365 -4.673942 -102.683300 -33.431713 129.873081 -18.775315 4.289759 -17.312138 -4.655944 -2.609857 -0.196613 5.421676 -7.936076 8.147011 90.456956 -62.115891 -113.085316 9.297986 0.441944 25.084275 -7.263504 -59.510008 0.725943 -44.575221 73.255555 -40.727065 20.479754 34.087763 10.756771 -0.004325 -0.003881 -0.001916 -6.217426 -48.876025 -7.773604 86.697439 77.034041 82.517417 -11.396030 -10.494564 -2.412707 -0.002232 0.005594 -0.000989
-2.287796 126.418960 22.030418 -168.416645 -28.077099 -2.907046 -5.381602 19.346555 0.015508 -0.651931 2.376950 0.093724 -1.091807 3.969593 0.161454 -4.600928 16.637730 0.131163 -0.347584 17.090389 -0.582513 -0.248573 -7.797992 -0.528442 -5.315454 -2.796210 -0.739319 -12.368790 -4.885922 -4.685945 -102.655058 -33.431121 129.864989 -18.769500 4.287341 -17.367142 -4.663940 -2.657024 -0.192835 5.433811 -7.932448 8.143534 90.455783 -62.105292 -113.076035 9.272996 0.426132 25.087862 -7.267967 -59.510016 0.749305 -44.581456 73.261144 -40.738828 20.508776 34.050721 10.727252 0.003120 -0.002641 0.001382 -6.263574 -48.859473 -7.723765 86.568801 77.145539 82.326988 -11.295815 -10.466452 -2.248984 -0.003838 0.008189 -0.001701
-2.288564 126.418868 22.029886 -168.419138 -28.071939 -2.916116 -5.384197 19.361971 0.029117 -0.652070 2.383643 0.098690 -1.094100 3.966061 0.158478 -4.596619 16.625880 0.130908 -0.338926 17.104542 -0.578508 -0.235564 -7.814530 -0.546678 -5.315041 -2.794160 -0.755172 -12.427510 -4.862660 -4.706829 -102.616857 -33.405193 129.884084 -18.767073 4.273982 -17.415567 -4.679482 -2.680931 -0.174966 5.444587 -7.924802 8.140090 90.471235 -62.114933 -113.092287 9.278214 0.405634 25.111503 -7.257411 -59.513635 0.765716 -44.614256 73.263203 -40.768518 20.490678 34.014949 10.693598 0.006803 -0.004141 0.003014 -6.320869 -48.850086 -7.664052 86.488947 77.212921 82.184491 -11.237096 -10.440915 -2.110425 -0.003270 0.007910 -0.001449
-2.288438 126.418399 22.029971 -168.422343 -28.063263 -2.930386 -5.380060 19.373155 0.049795 -0.661029 2.387747 0.098595 -1.085200 3.950687 0.155941 -4.606474 16.660417 0.146182 -0.320840 17.086390 -0.587783 -0.201649 -7.824980 -0.562108 -5.293990 -2.825508 -0.782241 -12.452741 -4.861808 -4.700343 -102.611005 -33.412672 129.873147 -18.769208 4.261680 -17.438910 -4.685746 -2.736194 -0.168756 5.415489 -7.931550 8.172304 90.524999 -62.116183 -113.108860 9.305838 0.387642 25.146772 -7.205852 -59.520186 0.762916 -44.720380 73.246679 -40.842954 20.419357 33.986335 10.646715 0.012463 -0.009511 0.005521 -6.383179 -48.850526 -7.600913 86.460151 77.237239 82.104166 -11.207589 -10.418249 -2.004489 0.000942 0.005272 0.000417
-2.289126 126.418220 22.029574 -168.420017 -28.059801 -2.944154 -5.378217 19.379849 0.065515 -0.663461 2.402670 0.104369 -1.087297 3.956357 0.158381 -4.610302 16.670307 0.155073 -0.313376 17.057749 -0.600881 -0.196198 -7.833528 -0.566024 -5.283675 -2.856006 -0.806410 -12.503778 -4.842678 -4.697224 -102.590117 -33.406564 129.877852 -18.773636 4.260630 -17.430154 -4.698430 -2.788512 -0.162696 5.399950 -7.931533 8.192440 90.541344 -62.094041 -113.089848 9.298292 0.376904 25.156133 -7.190323 -59.518661 0.769095 -44.757237 73.248543 -40.872705 20.349363 33.944158 10.619460 0.004169 -0.011692 0.001847 -6.434582 -48.851592 -7.558795 86.463475 77.236831 82.076817 -11.196077 -10.397196 -1.931682 0.008493 0.000763 0.003763
